<svg width="90" height="89" viewBox="0 0 90 89" fill="none" xmlns="http://www.w3.org/2000/svg">
<path d="M66.8946 12.3415C56.8946 14.7415 54.3946 10.3415 54.3946 7.84145C51.5612 3.00812 44.0946 -3.75855 36.8946 7.84145C35.0612 10.8415 30.2946 15.9415 25.8946 12.3415C20.3946 7.84145 6.39458 14.8414 12.8946 27.3414C12.8946 29.5081 12.2946 33.9414 9.89458 34.3414C6.89458 34.8414 -6.60542 43.3414 6.89458 52.8414C9.39457 53.8414 14.0946 57.6415 12.8946 64.8415C11.3946 73.8414 18.3946 78.8415 22.8946 76.8415C27.3946 74.8414 35.3946 77.3415 36.8946 83.8415C38.3946 90.3414 51.8946 88.3415 51.8946 83.8415C52.7279 79.8415 56.8946 72.8415 66.8946 76.8415C79.3946 81.8415 80.8946 66.3415 77.8946 64.8415C74.8946 63.3415 74.3946 53.3415 85.3946 51.3415C88.2279 48.6748 91.9946 42.2415 84.3946 37.8415C74.8946 32.3415 74.8946 27.8415 77.8946 22.3415C78.3946 18.0081 76.8946 9.94145 66.8946 12.3415Z" fill="white" fill-opacity="0.35"/>
<path d="M58.4121 33.8742C55.8353 33.8851 55.4867 32.6519 55.6344 32.034C55.2303 30.6743 53.8122 28.5669 51.3733 31.0149C50.7495 31.6497 49.2874 32.6327 48.4288 31.4866C47.3556 30.054 43.5329 30.969 44.3766 34.4372C44.2486 34.9728 43.8404 36.0337 43.2324 35.9928C42.4723 35.9417 38.6827 37.2565 41.4083 40.3909C41.9579 40.7837 42.8777 41.9966 42.1599 43.7064C41.2626 45.8437 42.6715 47.4872 43.8855 47.2549C45.0994 47.0226 46.8996 48.1064 46.8806 49.8004C46.8616 51.4944 50.267 51.7862 50.533 50.6739C50.9724 49.7337 52.4008 48.2461 54.5993 49.8172C57.3474 51.781 58.6289 48.0371 57.9871 47.4916C57.3453 46.9461 57.8147 44.4452 60.6114 44.5914C61.4589 44.0973 62.7564 42.7265 61.1659 41.1963C59.1778 39.2836 59.4438 38.1713 60.4994 36.9865C60.8774 35.9445 60.989 33.8633 58.4121 33.8742Z" fill="white" fill-opacity="0.35"/>
<path d="M66.8946 12.3415C56.8946 14.7415 54.3946 10.3415 54.3946 7.84145C51.5612 3.00812 44.0946 -3.75855 36.8946 7.84145C35.0612 10.8415 30.2946 15.9415 25.8946 12.3415C20.3946 7.84145 6.39458 14.8414 12.8946 27.3414C12.8946 29.5081 12.2946 33.9414 9.89458 34.3414C6.89458 34.8414 -6.60542 43.3414 6.89458 52.8414C9.39457 53.8414 14.0946 57.6415 12.8946 64.8415C11.3946 73.8414 18.3946 78.8415 22.8946 76.8415C27.3946 74.8414 35.3946 77.3415 36.8946 83.8415C38.3946 90.3414 51.8946 88.3415 51.8946 83.8415C52.7279 79.8415 56.8946 72.8415 66.8946 76.8415C79.3946 81.8415 80.8946 66.3415 77.8946 64.8415C74.8946 63.3415 74.3946 53.3415 85.3946 51.3415C88.2279 48.6748 91.9946 42.2415 84.3946 37.8415C74.8946 32.3415 74.8946 27.8415 77.8946 22.3415C78.3946 18.0081 76.8946 9.94145 66.8946 12.3415Z" stroke="black"/>
<path d="M58.4121 33.8742C55.8353 33.8851 55.4867 32.6519 55.6344 32.034C55.2303 30.6743 53.8122 28.5669 51.3733 31.0149C50.7495 31.6497 49.2874 32.6327 48.4288 31.4866C47.3556 30.054 43.5329 30.969 44.3766 34.4372C44.2486 34.9728 43.8404 36.0337 43.2324 35.9928C42.4723 35.9417 38.6827 37.2565 41.4083 40.3909C41.9579 40.7837 42.8777 41.9966 42.1599 43.7064C41.2626 45.8437 42.6715 47.4872 43.8855 47.2549C45.0994 47.0226 46.8996 48.1064 46.8806 49.8004C46.8616 51.4944 50.267 51.7862 50.533 50.6739C50.9724 49.7337 52.4008 48.2461 54.5993 49.8172C57.3474 51.781 58.6289 48.0371 57.9871 47.4916C57.3453 46.9461 57.8147 44.4452 60.6114 44.5914C61.4589 44.0973 62.7564 42.7265 61.1659 41.1963C59.1778 39.2836 59.4438 38.1713 60.4994 36.9865C60.8774 35.9445 60.989 33.8633 58.4121 33.8742Z" stroke="black"/>
</svg>
